<svg width="815" height="154" viewBox="0 0 815 154" fill="none" xmlns="http://www.w3.org/2000/svg">
<path d="M38.272 120.792C32.2987 120.792 27.0507 120.109 22.528 118.744C18.0907 117.379 14.3787 115.416 11.392 112.856C8.40533 110.296 6.18667 107.224 4.736 103.64C3.37067 99.9707 2.77333 95.9173 2.944 91.48L22.144 87.256C22.3147 91.1813 23.1253 94.3813 24.576 96.856C26.112 99.2453 28.16 101.037 30.72 102.232C33.28 103.341 36.1387 103.896 39.296 103.896C41.856 103.896 44.1173 103.597 46.08 103C48.0427 102.317 49.5787 101.421 50.688 100.312C51.8827 99.1173 52.48 97.752 52.48 96.216C52.48 94.168 51.712 92.504 50.176 91.224C48.64 89.8587 46.5067 88.7067 43.776 87.768C41.1307 86.8293 38.1013 85.8907 34.688 84.952C31.0187 83.928 27.3493 82.8187 23.68 81.624C20.096 80.344 16.8107 78.7653 13.824 76.888C10.8373 75.0107 8.40533 72.5787 6.528 69.592C4.736 66.6053 3.84 62.8933 3.84 58.456C3.84 52.9947 5.20533 48.344 7.936 44.504C10.752 40.664 14.592 37.7627 19.456 35.8C24.4053 33.752 30.0373 32.728 36.352 32.728C43.008 32.728 48.9387 33.88 54.144 36.184C59.3493 38.4027 63.36 41.688 66.176 46.04C68.992 50.392 70.1013 55.7253 69.504 62.04L50.56 65.112C50.6453 62.552 50.3893 60.2907 49.792 58.328C49.1947 56.3653 48.256 54.7013 46.976 53.336C45.7813 51.9707 44.2453 50.9467 42.368 50.264C40.4907 49.496 38.272 49.112 35.712 49.112C33.0667 49.112 30.848 49.4533 29.056 50.136C27.3493 50.8187 26.0267 51.7573 25.088 52.952C24.2347 54.1467 23.808 55.512 23.808 57.048C23.808 58.84 24.4907 60.3333 25.856 61.528C27.2213 62.7227 29.184 63.7893 31.744 64.728C34.304 65.5813 37.3333 66.4773 40.832 67.416C44.5013 68.44 48.1707 69.592 51.84 70.872C55.5947 72.0667 59.0507 73.688 62.208 75.736C65.3653 77.6987 67.8827 80.2587 69.76 83.416C71.7227 86.5733 72.704 90.584 72.704 95.448C72.704 101.08 71.2107 105.773 68.224 109.528C65.3227 113.283 61.2693 116.099 56.064 117.976C50.944 119.853 45.0133 120.792 38.272 120.792ZM106.491 120.536C98.555 120.536 92.6243 118.531 88.699 114.52C84.859 110.424 82.939 104.109 82.939 95.576V67.544H75.515V54.488H75.899C81.1897 53.8053 84.9443 52.056 87.163 49.24C89.3817 46.3387 90.747 41.9867 91.259 36.184V35.928H103.419V51.416H118.907V68.056H103.419V93.656C103.419 96.8987 104.187 99.2027 105.723 100.568C107.344 101.933 109.307 102.616 111.611 102.616C112.806 102.616 114.043 102.445 115.323 102.104C116.603 101.763 117.798 101.293 118.907 100.696V118.744C116.262 119.512 113.915 119.981 111.867 120.152C109.819 120.408 108.027 120.536 106.491 120.536ZM144.025 120.792C140.612 120.792 137.369 120.195 134.297 119C131.225 117.805 128.708 115.885 126.745 113.24C124.782 110.509 123.801 106.883 123.801 102.36C123.801 98.1787 124.612 94.808 126.233 92.248C127.854 89.6027 130.03 87.512 132.761 85.976C135.492 84.3547 138.478 83.16 141.721 82.392C144.964 81.5387 148.164 80.8133 151.321 80.216C155.758 79.3627 159.086 78.68 161.305 78.168C163.524 77.656 165.017 77.0587 165.785 76.376C166.638 75.6933 167.065 74.7547 167.065 73.56C167.065 71.0853 166.126 69.208 164.249 67.928C162.457 66.648 160.068 66.008 157.081 66.008C155.204 66.008 153.326 66.3493 151.449 67.032C149.572 67.7147 148.036 68.952 146.841 70.744C145.646 72.4507 145.092 74.9253 145.177 78.168L126.745 76.888C126.574 71.512 127.385 67.0747 129.177 63.576C130.969 59.992 133.401 57.2187 136.473 55.256C139.63 53.208 143.044 51.7573 146.713 50.904C150.468 50.0507 154.18 49.624 157.849 49.624C164.59 49.624 170.137 50.904 174.489 53.464C178.841 55.9387 182.041 59.5653 184.089 64.344C186.222 69.0373 187.289 74.7547 187.289 81.496V93.528C187.289 96.344 187.289 99.2027 187.289 102.104C187.289 104.92 187.289 107.736 187.289 110.552C187.289 113.368 187.289 116.184 187.289 119H169.369C169.369 115.928 169.369 112.813 169.369 109.656C169.369 106.499 169.369 103.171 169.369 99.672H168.601C168.26 103.512 166.98 107.053 164.761 110.296C162.628 113.453 159.769 116.013 156.185 117.976C152.686 119.853 148.633 120.792 144.025 120.792ZM152.601 105.688C154.052 105.688 155.588 105.432 157.209 104.92C158.916 104.323 160.494 103.384 161.945 102.104C163.481 100.824 164.718 99.0747 165.657 96.856C166.596 94.552 167.065 91.736 167.065 88.408V85.336L170.521 84.952C169.838 86.0613 168.686 86.9573 167.065 87.64C165.529 88.3227 163.78 88.8773 161.817 89.304C159.854 89.6453 157.849 90.0293 155.801 90.456C153.838 90.7973 152.004 91.3093 150.297 91.992C148.59 92.5893 147.182 93.4427 146.073 94.552C145.049 95.576 144.537 97.0267 144.537 98.904C144.537 101.123 145.305 102.829 146.841 104.024C148.462 105.133 150.382 105.688 152.601 105.688ZM222.741 120.536C214.805 120.536 208.874 118.531 204.949 114.52C201.109 110.424 199.189 104.109 199.189 95.576V67.544H191.765V54.488H192.149C197.44 53.8053 201.194 52.056 203.413 49.24C205.632 46.3387 206.997 41.9867 207.509 36.184V35.928H219.669V51.416H235.157V68.056H219.669V93.656C219.669 96.8987 220.437 99.2027 221.973 100.568C223.594 101.933 225.557 102.616 227.861 102.616C229.056 102.616 230.293 102.445 231.573 102.104C232.853 101.763 234.048 101.293 235.157 100.696V118.744C232.512 119.512 230.165 119.981 228.117 120.152C226.069 120.408 224.277 120.536 222.741 120.536ZM263.85 120.792C256.511 120.792 251.05 118.232 247.466 113.112C243.967 107.992 242.218 100.141 242.218 89.56V51.416H262.954V89.304C262.954 94.2533 263.637 97.7093 265.002 99.672C266.453 101.635 268.501 102.616 271.146 102.616C273.023 102.616 274.73 102.147 276.266 101.208C277.887 100.184 279.295 98.6907 280.49 96.728C281.685 94.68 282.581 92.0773 283.178 88.92C283.861 85.7627 284.202 81.9653 284.202 77.528V51.416H304.938V88.536V119H287.274V92.632H286.378C285.866 99.2027 284.714 104.579 282.922 108.76C281.13 112.856 278.655 115.885 275.498 117.848C272.341 119.811 268.458 120.792 263.85 120.792ZM343.676 120.792C339.153 120.792 334.929 120.323 331.004 119.384C327.164 118.531 323.793 117.123 320.892 115.16C318.076 113.197 315.9 110.595 314.364 107.352C312.913 104.024 312.316 100.013 312.572 95.32L330.62 93.784C330.791 96.6 331.431 98.9467 332.54 100.824C333.649 102.616 335.185 103.939 337.148 104.792C339.111 105.645 341.5 106.072 344.316 106.072C346.961 106.072 349.223 105.645 351.1 104.792C353.063 103.853 354.044 102.317 354.044 100.184C354.044 99.0747 353.703 98.1787 353.02 97.496C352.337 96.728 351.057 96.0453 349.18 95.448C347.388 94.7653 344.743 93.9973 341.244 93.144C336.892 92.0347 332.967 90.9253 329.468 89.816C325.969 88.7067 322.983 87.384 320.508 85.848C318.033 84.312 316.156 82.4347 314.876 80.216C313.596 77.912 312.956 75.096 312.956 71.768C312.956 67.0747 314.193 63.1067 316.668 59.864C319.228 56.536 322.727 54.0187 327.164 52.312C331.601 50.52 336.721 49.624 342.524 49.624C347.729 49.624 352.593 50.4347 357.116 52.056C361.639 53.6773 365.18 56.3227 367.74 59.992C370.385 63.6613 371.367 68.5253 370.684 74.584L353.02 76.248C353.276 73.7733 352.935 71.6827 351.996 69.976C351.057 68.184 349.692 66.8613 347.9 66.008C346.108 65.0693 343.932 64.6 341.372 64.6C338.471 64.6 336.209 65.1547 334.588 66.264C333.052 67.288 332.284 68.6107 332.284 70.232C332.284 71.512 332.753 72.6213 333.692 73.56C334.716 74.4133 336.252 75.1813 338.3 75.864C340.433 76.4613 343.164 77.144 346.492 77.912C349.393 78.5093 352.423 79.2773 355.58 80.216C358.737 81.1547 361.681 82.4347 364.412 84.056C367.143 85.592 369.361 87.64 371.068 90.2C372.775 92.76 373.628 96.0027 373.628 99.928C373.628 104.109 372.476 107.779 370.172 110.936C367.868 114.093 364.497 116.525 360.06 118.232C355.623 119.939 350.161 120.792 343.676 120.792ZM396.233 95.064V78.424H411.977C417.182 78.424 421.065 77.4 423.625 75.352C426.185 73.2187 427.465 69.72 427.465 64.856C427.465 60.248 426.27 56.8347 423.881 54.616C421.577 52.312 418.036 51.16 413.257 51.16H396.233V34.52H414.409C419.273 34.52 423.796 35.1173 427.977 36.312C432.158 37.4213 435.785 39.2133 438.857 41.688C442.014 44.1627 444.446 47.2773 446.153 51.032C447.945 54.7867 448.841 59.3093 448.841 64.6C448.841 71.3413 447.305 76.9733 444.233 81.496C441.246 86.0187 436.894 89.432 431.177 91.736C425.46 93.9547 418.462 95.064 410.185 95.064H396.233ZM380.745 119V34.52H401.481V119H380.745ZM471.4 120.792C467.987 120.792 464.744 120.195 461.672 119C458.6 117.805 456.083 115.885 454.12 113.24C452.157 110.509 451.176 106.883 451.176 102.36C451.176 98.1787 451.987 94.808 453.608 92.248C455.229 89.6027 457.405 87.512 460.136 85.976C462.867 84.3547 465.853 83.16 469.096 82.392C472.339 81.5387 475.539 80.8133 478.696 80.216C483.133 79.3627 486.461 78.68 488.68 78.168C490.899 77.656 492.392 77.0587 493.16 76.376C494.013 75.6933 494.44 74.7547 494.44 73.56C494.44 71.0853 493.501 69.208 491.624 67.928C489.832 66.648 487.443 66.008 484.456 66.008C482.579 66.008 480.701 66.3493 478.824 67.032C476.947 67.7147 475.411 68.952 474.216 70.744C473.021 72.4507 472.467 74.9253 472.552 78.168L454.12 76.888C453.949 71.512 454.76 67.0747 456.552 63.576C458.344 59.992 460.776 57.2187 463.848 55.256C467.005 53.208 470.419 51.7573 474.088 50.904C477.843 50.0507 481.555 49.624 485.224 49.624C491.965 49.624 497.512 50.904 501.864 53.464C506.216 55.9387 509.416 59.5653 511.464 64.344C513.597 69.0373 514.664 74.7547 514.664 81.496V93.528C514.664 96.344 514.664 99.2027 514.664 102.104C514.664 104.92 514.664 107.736 514.664 110.552C514.664 113.368 514.664 116.184 514.664 119H496.744C496.744 115.928 496.744 112.813 496.744 109.656C496.744 106.499 496.744 103.171 496.744 99.672H495.976C495.635 103.512 494.355 107.053 492.136 110.296C490.003 113.453 487.144 116.013 483.56 117.976C480.061 119.853 476.008 120.792 471.4 120.792ZM479.976 105.688C481.427 105.688 482.963 105.432 484.584 104.92C486.291 104.323 487.869 103.384 489.32 102.104C490.856 100.824 492.093 99.0747 493.032 96.856C493.971 94.552 494.44 91.736 494.44 88.408V85.336L497.896 84.952C497.213 86.0613 496.061 86.9573 494.44 87.64C492.904 88.3227 491.155 88.8773 489.192 89.304C487.229 89.6453 485.224 90.0293 483.176 90.456C481.213 90.7973 479.379 91.3093 477.672 91.992C475.965 92.5893 474.557 93.4427 473.448 94.552C472.424 95.576 471.912 97.0267 471.912 98.904C471.912 101.123 472.68 102.829 474.216 104.024C475.837 105.133 477.757 105.688 479.976 105.688ZM549.86 139.224C542.265 139.224 536.249 138.627 531.812 137.432C527.375 136.237 524.217 134.573 522.34 132.44C520.463 130.392 519.524 128.003 519.524 125.272C519.524 121.517 521.017 118.531 524.004 116.312C526.991 114.008 531.343 112.429 537.06 111.576V110.936C532.708 110.936 529.295 110.211 526.82 108.76C524.345 107.224 523.108 105.133 523.108 102.488C523.108 100.013 524.217 97.7947 526.436 95.832C528.74 93.8693 532.452 92.888 537.572 92.888V91.992C532.964 90.8827 529.295 88.7493 526.564 85.592C523.833 82.4347 522.468 78.3387 522.468 73.304C522.468 68.8667 523.577 65.0267 525.796 61.784C528.1 58.5413 531.428 56.024 535.78 54.232C540.132 52.3547 545.423 51.416 551.652 51.416H585.316V67.288L562.148 64.344V65.368C569.231 66.3067 574.009 67.928 576.484 70.232C579.044 72.4507 580.324 75.1387 580.324 78.296C580.324 81.4533 579.343 84.2693 577.38 86.744C575.503 89.2187 572.559 91.1813 568.548 92.632C564.537 93.9973 559.46 94.68 553.316 94.68C551.439 94.68 549.519 94.5947 547.556 94.424C545.679 94.2533 544.057 93.9973 542.692 93.656C541.241 94.2533 540.089 94.8933 539.236 95.576C538.468 96.1733 538.084 96.8133 538.084 97.496C538.084 97.9227 538.255 98.264 538.596 98.52C538.937 98.6907 539.407 98.8187 540.004 98.904C540.687 98.9893 541.455 99.032 542.308 99.032H562.788C564.58 99.032 566.799 99.16 569.444 99.416C572.175 99.5867 574.863 100.227 577.508 101.336C580.239 102.36 582.5 104.109 584.292 106.584C586.084 109.059 586.98 112.557 586.98 117.08C586.98 122.2 585.615 126.381 582.884 129.624C580.239 132.867 576.185 135.256 570.724 136.792C565.263 138.413 558.308 139.224 549.86 139.224ZM549.86 121.048C555.577 121.048 559.801 120.835 562.532 120.408C565.263 120.067 567.055 119.555 567.908 118.872C568.761 118.189 569.188 117.421 569.188 116.568C569.188 115.373 568.847 114.435 568.164 113.752C567.481 113.069 566.628 112.6 565.604 112.344C564.58 112.003 563.556 111.832 562.532 111.832C561.593 111.747 560.825 111.704 560.228 111.704H542.948C540.217 112.643 538.34 113.539 537.316 114.392C536.377 115.16 535.908 116.056 535.908 117.08C535.908 118.275 536.463 119.128 537.572 119.64C538.767 120.237 540.388 120.621 542.436 120.792C544.569 120.963 547.044 121.048 549.86 121.048ZM552.036 83.416C554.767 83.416 556.857 82.5627 558.308 80.856C559.844 79.1493 560.612 76.8027 560.612 73.816C560.612 70.8293 559.844 68.44 558.308 66.648C556.772 64.7707 554.639 63.832 551.908 63.832C549.263 63.832 547.129 64.7707 545.508 66.648C543.972 68.44 543.204 70.8293 543.204 73.816C543.204 75.7787 543.545 77.4853 544.228 78.936C544.911 80.3867 545.892 81.496 547.172 82.264C548.537 83.032 550.159 83.416 552.036 83.416ZM622.361 120.792C615.961 120.792 610.585 119.896 606.233 118.104C601.966 116.227 598.51 113.709 595.865 110.552C593.22 107.309 591.3 103.64 590.105 99.544C588.996 95.448 588.441 91.1387 588.441 86.616C588.441 81.752 589.038 77.1013 590.233 72.664C591.513 68.2267 593.433 64.3013 595.993 60.888C598.638 57.3893 602.009 54.6587 606.105 52.696C610.286 50.648 615.278 49.624 621.081 49.624C626.884 49.624 631.833 50.648 635.929 52.696C640.11 54.6587 643.438 57.432 645.913 61.016C648.388 64.6 649.966 68.7387 650.649 73.432C651.417 78.1253 651.332 83.2027 650.393 88.664L601.369 89.432V78.168L634.521 77.528L631.833 84.056C632.345 80.1307 632.26 76.8453 631.577 74.2C630.98 71.4693 629.828 69.4213 628.121 68.056C626.414 66.6053 624.068 65.88 621.081 65.88C617.924 65.88 615.406 66.6907 613.529 68.312C611.652 69.9333 610.329 72.2373 609.561 75.224C608.793 78.1253 608.409 81.5813 608.409 85.592C608.409 92.504 609.561 97.5387 611.865 100.696C614.169 103.853 617.71 105.432 622.489 105.432C624.537 105.432 626.244 105.176 627.609 104.664C628.974 104.152 630.084 103.427 630.937 102.488C631.79 101.464 632.388 100.269 632.729 98.904C633.07 97.4533 633.198 95.832 633.113 94.04L652.057 95.064C652.313 97.88 652.014 100.781 651.161 103.768C650.393 106.755 648.9 109.528 646.681 112.088C644.462 114.648 641.348 116.739 637.337 118.36C633.412 119.981 628.42 120.792 622.361 120.792ZM664.623 120.092C661.767 120.092 659.611 119.476 658.155 118.244C656.755 117.012 656.055 115.108 656.055 112.532C656.055 109.9 656.755 107.968 658.155 106.736C659.611 105.504 661.767 104.888 664.623 104.888C667.535 104.888 669.719 105.504 671.175 106.736C672.631 107.968 673.359 109.9 673.359 112.532C673.359 117.572 670.447 120.092 664.623 120.092ZM697.833 120.176C693.577 120.176 689.797 119.336 686.493 117.656C683.189 115.92 680.613 113.344 678.765 109.928C676.917 106.456 675.993 102.116 675.993 96.908C675.993 91.476 676.945 87.052 678.849 83.636C680.809 80.164 683.441 77.616 686.745 75.992C690.105 74.312 693.885 73.472 698.085 73.472C702.453 73.472 706.261 74.34 709.509 76.076C712.813 77.756 715.361 80.332 717.153 83.804C719.001 87.22 719.925 91.56 719.925 96.824C719.925 102.256 718.945 106.708 716.985 110.18C715.081 113.596 712.449 116.116 709.089 117.74C705.785 119.364 702.033 120.176 697.833 120.176ZM698.169 110.18C699.905 110.18 701.361 109.704 702.537 108.752C703.713 107.744 704.609 106.288 705.225 104.384C705.841 102.48 706.149 100.212 706.149 97.58C706.149 94.668 705.813 92.232 705.141 90.272C704.469 88.256 703.489 86.716 702.201 85.652C700.969 84.588 699.457 84.056 697.665 84.056C695.985 84.056 694.557 84.56 693.381 85.568C692.205 86.52 691.309 87.948 690.693 89.852C690.077 91.756 689.769 94.052 689.769 96.74C689.769 100.996 690.497 104.3 691.953 106.652C693.465 109.004 695.537 110.18 698.169 110.18ZM724.829 119V93.884V74.648H736.337V92.708H737.009C737.345 88.34 738.073 84.756 739.193 81.956C740.313 79.1 741.909 76.972 743.981 75.572C746.053 74.172 748.685 73.472 751.877 73.472C756.693 73.472 760.305 75.068 762.713 78.26C765.177 81.452 766.409 86.212 766.409 92.54V119H752.801V94.304C752.801 91.28 752.325 89.012 751.373 87.5C750.477 85.988 749.021 85.232 747.005 85.232C745.325 85.232 743.841 85.82 742.553 86.996C741.265 88.172 740.257 90.076 739.529 92.708C738.801 95.34 738.437 98.868 738.437 103.292V119H724.829ZM793.081 120.176C788.881 120.176 785.353 119.588 782.497 118.412C779.697 117.18 777.429 115.528 775.693 113.456C773.957 111.328 772.697 108.92 771.913 106.232C771.185 103.544 770.821 100.716 770.821 97.748C770.821 94.556 771.213 91.504 771.997 88.592C772.837 85.68 774.097 83.104 775.777 80.864C777.513 78.568 779.725 76.776 782.413 75.488C785.157 74.144 788.433 73.472 792.241 73.472C796.049 73.472 799.297 74.144 801.985 75.488C804.729 76.776 806.913 78.596 808.537 80.948C810.161 83.3 811.197 86.016 811.645 89.096C812.149 92.176 812.093 95.508 811.477 99.092L779.305 99.596V92.204L801.061 91.784L799.297 96.068C799.633 93.492 799.577 91.336 799.129 89.6C798.737 87.808 797.981 86.464 796.861 85.568C795.741 84.616 794.201 84.14 792.241 84.14C790.169 84.14 788.517 84.672 787.285 85.736C786.053 86.8 785.185 88.312 784.681 90.272C784.177 92.176 783.925 94.444 783.925 97.076C783.925 101.612 784.681 104.916 786.193 106.988C787.705 109.06 790.029 110.096 793.165 110.096C794.509 110.096 795.629 109.928 796.525 109.592C797.421 109.256 798.149 108.78 798.709 108.164C799.269 107.492 799.661 106.708 799.885 105.812C800.109 104.86 800.193 103.796 800.137 102.62L812.569 103.292C812.737 105.14 812.541 107.044 811.981 109.004C811.477 110.964 810.497 112.784 809.041 114.464C807.585 116.144 805.541 117.516 802.909 118.58C800.333 119.644 797.057 120.176 793.081 120.176Z" fill="white"/>
</svg>
